<?xml version="1.0" encoding="UTF-8"?>
<svg id="Layer_2" data-name="Layer 2" xmlns="http://www.w3.org/2000/svg" version="1.1" viewBox="0 0 346.4 343.8">
  <defs>
    <style>
      .cls-1 {
        fill: #efe7d2;
      }

      .cls-1, .cls-2 {
        stroke-width: 0px;
      }

      .cls-2 {
        fill: #93773a;
      }
    </style>
  </defs>
  <g id="Layer_1-2" data-name="Layer 1-2">
    <circle class="cls-1" cx="172.4" cy="172.4" r="171.4"/>
    <path class="cls-2" d="M122.9,111.6c0,1.1-.9,1.6-2.4,1.6-10.8,0-25.3-10.1-25.3-26.5s22.7-38.6,54.8-38.6,37.2,6.5,52.9,16.1c1.6-2.3,2.6-3.7,3.1-3.7,2.1,0,3.1,1.2,3.1,2.6s-.4,1.8-1.1,4.5l4.5,3.1c.5.3,1.1.9,1.1,1.4s-.9,1.8-1.4,1.8-1.1-.3-2.1-1.1l-2.8-1.8c-3.3,15.4-10.1,51.7-10.1,98,4.4-11,47.3-89.4,75.1-108.3,3.8-2.6,6.3-4,8.2-4s2.3.9,2.3,1.9-2.5,4.7-4.7,8.2c-11.2,17.3-28.1,52.9-28.1,94.3s8.2,24.8,18,24.8,9.1-2.8,9.8-2.8,1.2.7,1.2,1.4-5.1,4.7-12.9,4.7-20.9-7.7-20.9-28.1c0-44.2,19.7-81.2,28.6-96.9-30.4,26-67.9,96.2-73.2,108.4-1.1,2.6-3.5,3.3-6.1,3.3s-2.1-4-2.1-10.6c.4-50.3,8.9-89.9,8.9-89.9-28.3,47.8-70.7,130.3-123.1,130.3s-27.8-14.5-27.8-22.4.5-1.6,1.4-1.6,1,.7,1.2,1.8c1.4,6.8,8.9,17.5,25.3,17.5,48.9,0,90.3-78.8,115.9-122.6,2.6-4.4,4.7-8.2,6.6-11.2-15-8.4-32.8-14.8-51-14.8-27.8,0-49.4,13.8-49.4,34.2s10.5,22.7,20.8,23.9c1.2.2,1.6.5,1.6,1.1h0Z"/>
    <path class="cls-2" d="M263,158.5c0,26.9-42.1,57.8-91,59.7-8.9,14.7-18.2,29.3-28.1,41.9,24.3,12,48,26.2,67.2,26.2s20.4-10.5,21.8-10.5,1.2.7,1.2,1.2c0,.9-9.4,14-23.8,14s-44.4-15-69.3-27.2c-16.2,19.6-34.4,33.7-56.6,33.7s-29.5-9.2-29.5-25.8,17.6-28.3,35.1-28.3,32.7,6.6,49.2,14.7c9.2-11.9,18-25.7,26.4-39.6-36.1-.4-55.9-17.5-55.9-36.7s18.5-29.2,32.1-29.2,15.7,3.1,15.7,4-.5,1.4-1.2,1.4-5.6-2.6-14-2.6c-12.1,0-27.6,10.1-27.6,25.5s16.9,32.8,53.4,33.4c22.7-37.5,44.4-74.6,72.6-74.6s22,7.2,22,18.9h0ZM136.4,261.5c-16.2-7.7-32.5-14-47.3-14s-29.5,9.8-29.5,24.1,12.9,21.5,25.3,21.5c19.9,0,36.5-13.1,51.5-31.6h0ZM174.4,214c43.3-1.8,84-30.6,84-56.8s-7.2-13.6-15.5-13.6c-26,0-46.4,34.2-68.4,70.4Z"/>
  </g>
</svg>